Coordinates
version=1
nRows=60
nColumns=12
inDegrees=yes

Units are S.I. units (second, meters, Newtons, ...)
Angles are in degrees

endheader
time	SC_y	SC_z	SC_x	AC_y	AC_z	AC_x	GH_y	GH_z	GH_yy	EL_x	PS_y
       0.0              -20.98          39.36          20.21          68.07         -16.18         0.7925          121.2          57.77          39.09          52.89          142.6
    0.0334              -20.97          39.36          20.21          68.06         -16.17         0.7937          121.2          57.77           39.1          52.89          142.6
    0.0668              -20.97          39.36          20.22          68.06         -16.17         0.7948          121.2          57.78          39.12          52.89          142.6
    0.1002              -20.97          39.36          20.22          68.05         -16.17         0.7961          121.2          57.78          39.13          52.89          142.6
    0.1336              -20.97          39.36          20.23          68.05         -16.17         0.7975          121.2          57.79          39.15          52.89          142.5
     0.167              -20.97          39.35          20.24          68.04         -16.16         0.7989          121.1          57.79          39.16          52.89          142.5
    0.2004              -20.97          39.35          20.24          68.03         -16.16         0.8005          121.1           57.8          39.18          52.88          142.5
    0.2338              -20.97          39.35          20.25          68.02         -16.15         0.8021          121.1           57.8           39.2          52.88          142.5
    0.2672              -20.97          39.35          20.26          68.01         -16.15         0.8039          121.1          57.81          39.22          52.88          142.5
    0.3006              -20.97          39.34          20.27          68.01         -16.14         0.8058          121.1          57.82          39.24          52.88          142.5
     0.334              -20.97          39.34          20.28           68.0         -16.14         0.8078          121.0          57.82          39.27          52.88          142.5
    0.3674              -20.97          39.34          20.28          67.99         -16.13           0.81          121.0          57.83          39.29          52.88          142.4
    0.4008              -20.97          39.34          20.29          67.97         -16.13         0.8124          121.0          57.84          39.32          52.88          142.4
    0.4342              -20.97          39.33          20.31          67.96         -16.12         0.8149          121.0          57.85          39.35          52.87          142.4
    0.4676              -20.97          39.33          20.32          67.95         -16.12         0.8177          120.9          57.86          39.38          52.87          142.4
     0.501              -20.97          39.32          20.33          67.94         -16.11         0.8207          120.9          57.87          39.41          52.87          142.4
    0.5344              -20.97          39.32          20.34          67.92          -16.1         0.8239          120.9          57.88          39.45          52.87          142.3
    0.5678              -20.97          39.31          20.36           67.9         -16.09         0.8275          120.8          57.89          39.49          52.87          142.3
    0.6012              -20.97          39.31          20.38          67.88         -16.08         0.8313          120.8          57.91          39.53          52.86          142.3
    0.6346              -20.96           39.3           20.4          67.86         -16.07         0.8356          120.7          57.92          39.58          52.86          142.3
     0.668              -20.96           39.3          20.42          67.84         -16.06         0.8402          120.7          57.94          39.63          52.86          142.2
    0.7014              -20.96          39.29          20.44          67.82         -16.05         0.8453          120.6          57.96          39.69          52.85          142.2
    0.7348              -20.96          39.28          20.46          67.79         -16.03          0.851          120.6          57.97          39.75          52.85          142.1
    0.7682              -20.96          39.27          20.49          67.76         -16.02         0.8572          120.5           58.0          39.83          52.85          142.1
    0.8016              -20.96          39.26          20.52          67.73          -16.0         0.8642          120.4          58.02           39.9          52.84          142.1
     0.835              -20.96          39.25          20.55          67.69         -15.98          0.872          120.3          58.05          39.99          52.84          142.0
    0.8684              -20.95          39.24          20.59          67.65         -15.96         0.8807          120.2          58.08          40.09          52.83          141.9
    0.9018              -20.95          39.23          20.63           67.6         -15.93         0.8905          120.1          58.11           40.2          52.82          141.9
    0.9352              -20.95          39.21          20.68          67.55         -15.91         0.9015          120.0          58.15          40.33          52.82          141.8
    0.9686              -20.95          39.19          20.74          67.49         -15.88         0.9141          119.8           58.2          40.47          52.81          141.7
     1.002              -20.94          39.17           20.8          67.42         -15.84         0.9285          119.7          58.25          40.63           52.8          141.6
     1.035              -20.94          39.15          20.87          67.34          -15.8         0.9449          119.5           58.3          40.82          52.79          141.5
     1.069              -20.93          39.12          20.95          67.25         -15.75         0.9639          119.3          58.37          41.03          52.77          141.3
     1.102              -20.93          39.09          21.05          67.15          -15.7          0.986          119.0          58.45          41.28          52.76          141.2
     1.136              -20.92          39.06          21.16          67.03         -15.63          1.012          118.8          58.54          41.58          52.74          141.0
     1.169              -20.91          39.01          21.29          66.88         -15.56          1.042          118.4          58.64          41.92          52.72          140.7
     1.202              -20.91          38.96          21.45          66.71         -15.47          1.078          118.0          58.77          42.33           52.7          140.5
     1.236               -20.9           38.9          21.64           66.5         -15.36          1.122          117.5          58.92          42.82          52.67          140.2
     1.269              -20.88          38.83          21.86          66.25         -15.23          1.174          116.9           59.1          43.42          52.63          139.8
     1.303              -20.87          38.74          22.14          65.95         -15.07          1.238          116.2          59.33          44.14          52.59          139.3
     1.336              -20.85          38.63          22.48          65.57         -14.88          1.318          115.3           59.6          45.04          52.54          138.7
     1.369              -20.82          38.49          22.91          65.11         -14.63          1.416          114.2          59.95          46.16          52.47          138.0
     1.403              -20.79          38.31          23.45          64.52         -14.32          1.541          112.8          60.38          47.56          52.38          137.1
     1.436              -20.76          38.09          24.13          63.76         -13.93          1.699          111.1          60.93          49.35          52.28          135.9
      1.47              -20.71          37.81          25.01           62.8         -13.43          1.901          108.8          61.64          51.64          52.14          134.5
     1.503              -20.65          37.45          26.13          61.57         -12.79           2.16          105.9          62.55          54.58          51.97          132.5
     1.536              -20.57          36.98          27.57           60.0         -11.96          2.492          102.2           63.7          58.34          51.74          130.1
      1.57              -20.47           36.4          29.37          58.02         -10.93          2.909          97.54          65.16          63.06          51.46          127.1
     1.603              -20.34          35.68          31.57           55.6         -9.672          3.417          91.86          66.93          68.81          51.12          123.3
     1.637               -20.2          34.86          34.12           52.8         -8.212          4.005          85.27          68.99          75.48          50.72          119.0
      1.67              -20.05          33.97          36.88          49.78         -6.631          4.643          78.14          71.21           82.7          50.29          114.3
     1.703              -19.89          33.07          39.64          46.75         -5.051           5.28          71.01          73.44          89.92          49.86          109.7
     1.737              -19.75          32.25          42.19          43.95         -3.591          5.869          64.43          75.49          96.59          49.46          105.4
      1.77              -19.63          31.53          44.39          41.54         -2.332          6.377          58.75          77.27          102.3          49.12          101.6
     1.804              -19.53          30.95           46.2          39.56         -1.298          6.794          54.08          78.72          107.1          48.83          98.58
     1.837              -19.45          30.49          47.63          37.98        -0.4761          7.126          50.38          79.88          110.8          48.61          96.15
      1.87              -19.39          30.12          48.76          36.75         0.1673          7.385          47.47          80.78          113.8          48.43          94.25
     1.904              -19.34          29.84          49.63          35.79         0.6687          7.587          45.21          81.49          116.1           48.3          92.76
     1.937               -19.3          29.62          50.32          35.04           1.06          7.745          43.45          82.04          117.8          48.19          91.61
     1.971              -19.27          29.44          50.86          34.45          1.369           7.87          42.06          82.48          119.2          48.11          90.69
